<svg width="68" height="57" viewBox="0 0 68 57" fill="none" xmlns="http://www.w3.org/2000/svg">
<path fill-rule="evenodd" clip-rule="evenodd" d="M10.1097 42.8358C10.1097 47.7678 14.1237 51.7818 19.0587 51.7818H22.7667C24.0087 51.7818 25.0167 52.7898 25.0167 54.0318C25.0167 55.2738 24.0087 56.2818 22.7667 56.2818H19.0587C11.6427 56.2818 5.6097 50.2488 5.6097 42.8358L5.607 32.862L2.25 32.8647C1.008 32.8647 0 31.8567 0 30.6147C0 29.3727 1.008 28.3647 2.25 28.3647L7.81676 28.3612C7.83104 28.3609 7.84535 28.3608 7.8597 28.3608L7.902 28.362L59.5944 28.3613C59.6096 28.361 59.6248 28.3608 59.64 28.3608L59.682 28.362L65.25 28.3647C66.492 28.3647 67.5 29.3727 67.5 30.6147C67.5 31.8567 66.492 32.8647 65.25 32.8647L61.89 32.862V42.8358C61.89 50.2488 55.857 56.2818 48.441 56.2818H44.826C43.584 56.2818 42.576 55.2738 42.576 54.0318C42.576 52.7898 43.584 51.7818 44.826 51.7818H48.441C53.376 51.7818 57.39 47.7678 57.39 42.8358V32.862H10.107L10.1097 42.8358ZM48.4407 0C55.8567 0 61.8897 6.033 61.8897 13.443V17.985C61.8897 19.227 60.8817 20.235 59.6397 20.235C58.3977 20.235 57.3897 19.227 57.3897 17.985V13.443C57.3897 8.514 53.3757 4.5 48.4407 4.5H44.8257C43.5837 4.5 42.5757 3.492 42.5757 2.25C42.5757 1.008 43.5837 0 44.8257 0H48.4407ZM22.7673 0C24.0093 0 25.0173 1.008 25.0173 2.25C25.0173 3.492 24.0093 4.5 22.7673 4.5H19.0593C14.1243 4.5 10.1103 8.514 10.1103 13.443V17.985C10.1103 19.227 9.1023 20.235 7.8603 20.235C6.6183 20.235 5.6103 19.227 5.6103 17.985V13.443C5.6103 6.033 11.6433 0 19.0593 0H22.7673Z" fill="#FE8235"/>
</svg>
